<?xml version="1.0" standalone="no"?>
<!DOCTYPE svg PUBLIC "-//W3C//DTD SVG 20010904//EN"
 "http://www.w3.org/TR/2001/REC-SVG-20010904/DTD/svg10.dtd">
<svg version="1.0" xmlns="http://www.w3.org/2000/svg"
 width="192.000000pt" height="192.000000pt" viewBox="0 0 192.000000 192.000000"
 preserveAspectRatio="xMidYMid meet">

<g transform="translate(0.000000,192.000000) scale(0.100000,-0.100000)"
fill="#FFFFFF" stroke="none">
<path d="M850 1914 c-97 -13 -214 -50 -315 -100 -195 -96 -333 -234 -429 -429
-77 -154 -100 -254 -100 -425 0 -171 23 -271 100 -425 96 -195 234 -333 429
-429 154 -77 254 -100 425 -100 171 0 271 23 425 100 195 96 333 234 429 429
77 154 100 254 100 425 0 171 -23 271 -100 425 -96 196 -234 333 -429 429 -61
30 -148 64 -195 76 -83 20 -266 33 -340 24z m-110 -764 c0 -13 -7 -20 -19 -20
-28 0 -51 -27 -51 -61 0 -26 3 -29 30 -29 23 0 30 -4 30 -20 0 -16 -7 -20 -30
-20 l-30 0 0 -115 0 -115 -30 0 -30 0 0 115 c0 108 -1 115 -20 115 -13 0 -20
7 -20 20 0 13 7 20 19 20 14 0 20 10 24 42 7 54 43 88 93 88 27 0 34 -4 34
-20z m1040 0 c0 -15 -7 -20 -24 -20 -28 0 -56 -33 -56 -67 0 -19 5 -23 30 -23
23 0 30 -4 30 -20 0 -16 -7 -20 -30 -20 l-30 0 0 -115 0 -115 -25 0 -25 0 0
115 0 115 -25 0 c-18 0 -25 5 -25 20 0 15 7 20 25 20 23 0 25 4 25 40 0 56 34
90 90 90 33 0 40 -3 40 -20z m-490 -185 l0 -196 -37 0 c-21 0 -59 -2 -84 -5
-39 -5 -50 -2 -76 20 -62 52 -64 185 -4 238 33 30 85 37 122 18 18 -10 19 -7
19 55 l0 65 30 0 30 0 0 -195z m-772 168 c13 -26 4 -43 -24 -43 -29 0 -41 24
-24 45 17 20 37 19 48 -2z m-228 -5 c0 -7 -4 -30 -9 -50 -9 -37 -8 -38 19 -38
30 0 32 4 45 68 5 25 12 32 30 32 21 0 22 -2 14 -37 -13 -57 -11 -63 16 -63
18 0 25 -5 25 -20 0 -15 -7 -20 -29 -20 -30 0 -32 -3 -45 -62 -6 -26 -4 -28
24 -28 23 0 30 -4 30 -20 0 -16 -7 -20 -34 -20 -33 0 -34 -1 -41 -50 -6 -45
-9 -50 -32 -50 -22 0 -24 3 -18 33 4 17 9 40 11 50 4 13 -1 17 -25 17 -25 0
-30 -5 -36 -32 -12 -60 -16 -68 -37 -68 -18 0 -19 4 -13 50 7 49 6 50 -19 50
-19 0 -26 5 -26 20 0 16 7 20 30 20 32 0 35 4 44 58 5 30 4 32 -24 32 -23 0
-30 4 -30 20 0 16 7 20 34 20 32 0 35 2 41 43 4 23 9 45 12 50 7 12 43 8 43
-5z m674 -99 c25 -20 26 -23 26 -140 l0 -119 -25 0 -25 0 0 102 c0 80 -3 105
-17 120 -20 22 -42 23 -71 2 -20 -14 -22 -23 -22 -120 l0 -104 -30 0 -30 0 0
135 0 135 25 0 c14 0 25 -5 25 -11 0 -5 10 -3 22 5 32 23 90 20 122 -5z m565
5 c28 -20 51 -72 51 -114 l0 -30 -96 0 c-94 0 -95 0 -89 -22 9 -32 52 -68 79
-68 13 0 35 9 49 20 23 18 26 18 38 4 22 -26 -30 -64 -87 -64 -89 0 -134 47
-134 140 0 90 49 150 124 150 23 0 52 -7 65 -16z m-1009 -129 l0 -135 -25 0
-25 0 0 135 0 135 25 0 25 0 0 -135z"/>
<path d="M1142 1003 c-20 -8 -42 -59 -42 -98 0 -79 53 -125 105 -91 23 15 25
23 25 91 0 65 -3 76 -22 89 -23 16 -42 19 -66 9z"/>
<path d="M260 986 c0 -7 -3 -28 -6 -45 -6 -29 -5 -31 25 -31 20 0 31 5 31 14
0 7 3 28 6 45 6 29 5 31 -25 31 -20 0 -31 -5 -31 -14z"/>
<path d="M1420 988 c-11 -12 -20 -30 -20 -40 0 -15 9 -18 60 -18 53 0 60 2 60
20 0 26 -34 60 -60 60 -10 0 -28 -10 -40 -22z"/>
</g>
</svg>
